<?xml version="1.0" encoding="UTF-8"?>
<svg xmlns="http://www.w3.org/2000/svg" version="1.1" viewBox="0 0 110 135">
  <defs>
    <style>
      .cls-1 {
        fill: #fff;
        fill-rule: evenodd;
      }
    </style>
  </defs>
  <!-- Generator: Adobe Illustrator 28.7.0, SVG Export Plug-In . SVG Version: 1.2.0 Build 136)  -->
  <g>
    <g id="Calque_1">
      <path class="cls-1" d="M33.6,80.6l8.3,8.3,5-5.6h0c-3-2.2-5.6-4.8-7.7-7.7l-5.6,5h0ZM39.5,91.5l-14.9,16.5s0,0,0,0c0,0-.1.2-.2.3,0,0-.1.1-.2.2,0,0,0,0,0,0h0c-2.8,2.8-7.4,2.8-10.2,0-2.8-2.8-2.8-7.4,0-10.2,0,0,.2-.2.3-.3,0,0,.2-.1.2-.2,0,0,0,0,.1-.1l16.5-14.9,8.5,8.5h0ZM51.3,65.1v-14.2c0-1,.8-1.8,1.8-1.8s1.8.8,1.8,1.8v14.2h10.6s0-26.5,0-26.5c0-1,.8-1.8,1.8-1.8s1.8.8,1.8,1.8v26.6h10.6v-18.1c0-1,.8-1.7,1.8-1.7s1.7.8,1.8,1.7v18.1h5.2c1,0,1.8.8,1.8,1.8s-.8,1.8-1.8,1.8h-42.1c-1,0-1.8-.8-1.8-1.8s.8-1.8,1.8-1.8h5.2ZM89.1,33.4c6.8,6.8,10.1,16.4,8.8,26-1.3,9.6-6.9,18-15.3,22.8s-18.5,5.5-27.4,1.8c-8.9-3.7-15.6-11.3-18.1-20.6-2.5-9.3-.5-19.3,5.4-26.9,5.9-7.7,15-12.1,24.6-12.1,8.2,0,16.1,3.3,21.9,9.1h0Z"/>
    </g>
  </g>
</svg>