<?xml version="1.0" encoding="UTF-8"?>
<svg xmlns="http://www.w3.org/2000/svg" version="1.1" viewBox="0 0 110 135">
  <defs>
    <style>
      .cls-1 {
        fill: #fff;
      }
    </style>
  </defs>
  <!-- Generator: Adobe Illustrator 28.7.0, SVG Export Plug-In . SVG Version: 1.2.0 Build 136)  -->
  <g>
    <g id="Calque_1">
      <path class="cls-1" d="M37.3,57.8c0,3.8,2,7.3,5.2,9.2-.2.7-.3,1.5-.3,2.2,0,5,4,9,9,9h.1c1.6,2.8,4.5,4.5,7.8,4.5s4.3-.8,5.9-2.3c.3-.3.5-.7.5-1.1v-12.3s3.2,0,3.2,0l2.2,4.4c-.8.8-1.3,2-1.3,3.2,0,2.5,2.1,4.6,4.6,4.6s4.6-2.1,4.6-4.6-2.1-4.6-4.6-4.6-.4,0-.6,0l-2.6-5.2c-.2-.5-.7-.8-1.3-.8h-4.1v-3.2h7.8l2.6,2.5c-.3.6-.4,1.2-.4,1.9,0,2.5,2.1,4.6,4.6,4.6s4.6-2.1,4.6-4.6-2.1-4.6-4.6-4.6-1.5.2-2.2.5l-3-2.9c-.3-.3-.6-.4-1-.4h-8.4v-4.6h10.2c.6,1.8,2.3,3.1,4.3,3.1s4.6-2.1,4.6-4.6-2.1-4.6-4.6-4.6-3.7,1.3-4.3,3.1h-10.2v-4.6h8.4c.4,0,.7-.1,1-.4l3-2.9c.6.3,1.4.5,2.2.5,2.5,0,4.6-2.1,4.6-4.6s-2.1-4.6-4.6-4.6-4.6,2.1-4.6,4.6.2,1.3.4,1.9l-2.6,2.5h-7.8v-3.2h4.1c.6,0,1.1-.3,1.3-.8l2.6-5.2c.2,0,.4,0,.6,0,2.5,0,4.6-2.1,4.6-4.6s-2.1-4.6-4.6-4.6-4.6,2.1-4.6,4.6.5,2.4,1.3,3.2l-2.2,4.4h-3.2v-11.8c0-.4-.2-.8-.5-1.1-2-1.8-4.5-2.7-7.1-2.7-4.7,0-8.9,3.1-10.2,7.5-3,.3-5.8,1.7-8,4.2-2.3,2.6-3.6,6.1-3.6,9.6s1.1,6.4,3.2,8.9c-1.3,1.8-2,3.9-2,6.2h0ZM75.9,74.7c0,.9-.8,1.7-1.7,1.7s-1.7-.8-1.7-1.7.8-1.7,1.7-1.7,1.7.7,1.7,1.7ZM80.1,63.7c.9,0,1.7.8,1.7,1.7s-.8,1.7-1.7,1.7-1.7-.8-1.7-1.7.8-1.7,1.7-1.7ZM80.1,50.4c.9,0,1.7.8,1.7,1.7s-.8,1.7-1.7,1.7-1.7-.8-1.7-1.7.8-1.7,1.7-1.7ZM80.1,37.1c.9,0,1.7.8,1.7,1.7s-.8,1.7-1.7,1.7-1.7-.8-1.7-1.7.8-1.7,1.7-1.7ZM74.2,27.7c.9,0,1.7.8,1.7,1.7s-.8,1.7-1.7,1.7-1.7-.8-1.7-1.7c0-.9.7-1.7,1.7-1.7ZM39,42.6c0-5.9,4.5-10.9,9.9-10.9s5,1.1,6.9,3.1c.5.6,1.5.6,2,0,.6-.5.6-1.5,0-2-2-2.1-4.4-3.5-7.1-3.9,1.2-2.8,4-4.7,7.2-4.7s3.4.6,4.7,1.6v52.9c-1,.7-2.2,1.1-3.5,1.1-1.9,0-3.6-.8-4.7-2.2,1.5-.6,2.8-1.5,3.8-2.8.5-.6.4-1.5-.2-2-.6-.5-1.5-.4-2,.2-1.2,1.5-2.9,2.3-4.8,2.3-3.4,0-6.1-2.7-6.1-6.1s1.2-4.2,3-5.3c.7-.4.9-1.3.5-2-.4-.7-1.3-.9-2-.5-1.2.7-2.2,1.7-3,2.8-2.1-1.5-3.5-3.9-3.5-6.5,0-4.4,3.5-7.9,7.9-7.9s7.9,3.5,7.9,7.9.7,1.4,1.4,1.4,1.4-.7,1.4-1.4c0-5.9-4.8-10.8-10.8-10.8s-5,.9-6.8,2.4c-1.5-1.9-2.3-4.3-2.3-6.8h0ZM88.4,85.3c-.8-1.4-2.2-2.4-3.8-2.9-1.6-.4-3.3-.2-4.7.6l-15.3,8.9c-.1-.8-.4-1.5-.8-2.2-.9-1.6-2.3-2.7-4.1-3.1l-17.7-4.8c-2.4-.7-5.1,0-7.6,1.9l-4.4,3.4v-.4c-.5-1.3-1.8-2.1-3.2-1.8l-4.2,1.1c-1.3.4-2.1,1.7-1.8,3.1l6.1,22.8c.2.6.6,1.2,1.2,1.5.4.2.8.3,1.2.3s.4,0,.6,0l4.2-1.1c1.3-.4,2.1-1.7,1.8-3.1l-.2-.7c2.4-1.7,4.6-2.2,7.3-1.6l10.1,2.3c.9.2,1.8.3,2.6.3,1.8,0,3.4-.4,4.9-1.3l25.3-14.6c2.9-1.7,4-5.5,2.3-8.5h0ZM29.7,110.7l-5.9-22,3.4-.9,5.9,22-3.4.9ZM84.7,91.2l-25.3,14.6c-1.6.9-3.4,1.2-5.5.7l-10.1-2.3c-3.2-.7-5.9-.3-8.7,1.5l-4.2-15.7,5.4-4.1c1.8-1.4,3.5-1.9,5.1-1.4l17.7,4.8c1,.3,1.8.9,2.3,1.8.5.9.6,1.9.4,2.9-.3,1-.9,1.8-1.8,2.3-.9.5-1.9.6-2.9.4l-9.4-2.6c-.8-.2-1.6.2-1.8,1-.2.8.2,1.6,1,1.8l9.4,2.6c.6.2,1.2.2,1.8.2,1.2,0,2.3-.3,3.3-.9,1.3-.8,2.3-1.9,2.9-3.3l17.2-9.9c.8-.4,1.6-.6,2.5-.3.9.2,1.6.8,2,1.5.9,1.6.4,3.6-1.2,4.5h0Z"/>
    </g>
  </g>
</svg>