<?xml version="1.0" encoding="UTF-8"?>
<svg xmlns="http://www.w3.org/2000/svg" version="1.1" viewBox="0 0 110 135">
  <defs>
    <style>
      .cls-1, .cls-2 {
        fill: #fff;
      }

      .cls-2 {
        fill-rule: evenodd;
      }
    </style>
  </defs>
  <!-- Generator: Adobe Illustrator 28.7.0, SVG Export Plug-In . SVG Version: 1.2.0 Build 136)  -->
  <g>
    <g id="Calque_1">
      <g>
        <path class="cls-1" d="M67.3,45.5c0,6.8-5.5,12.3-12.3,12.3s-12.3-5.5-12.3-12.3,5.5-12.3,12.3-12.3,12.3,5.5,12.3,12.3"/>
        <path class="cls-2" d="M60.9,90.1c4.4.4,16.5,2.4,16.5,8.2s-2.4,4.3-4.4,5.3h0c-.7.4-1.6,0-1.9-.6-.4-.7,0-1.6.6-1.9.9-.4,2.8-1.6,2.8-2.7,0-3.9-13.8-5.4-16.4-5.6-.7.7-1.5,1.3-2.2,1.9h0c-.5.4-1.3.4-1.8,0-3.4-2.7-6.4-5.8-9.1-9.2-6,1.2-17.8,5.3-17.8,13s20.1,13.9,27.8,13.9,27.8-3.3,27.8-13.9-11.7-11.8-17.8-13c-1.3,1.6-2.7,3.2-4.1,4.7h0ZM55,104c.8,0,1.4.6,1.4,1.4s-.6,1.4-1.4,1.4c-5,0-22.4-1.3-22.4-8.5s2.4-4.3,4.4-5.3h0c.7-.3,1.5,0,1.9.7.3.7,0,1.5-.6,1.9-.9.4-2.8,1.6-2.8,2.7,0,4.4,16.5,5.6,19.5,5.6h0Z"/>
        <path class="cls-2" d="M77.3,40.1c-1.8-12.3-10.5-17.4-22.3-17.4s-20.5,5.1-22.3,17.4c-2.5,16.8,8.6,40.1,22.3,51.6,13.3-11.1,24.9-34.3,22.3-51.6ZM55,30.3c4,0,7.9,1.6,10.8,4.5,2.9,2.9,4.4,6.7,4.4,10.8s-1.6,7.9-4.5,10.8c-2.9,2.9-6.7,4.4-10.8,4.4-4,0-7.9-1.6-10.7-4.5-2.8-2.9-4.4-6.7-4.4-10.8,0-4,1.6-7.9,4.5-10.7,2.9-2.8,6.7-4.4,10.7-4.4h0Z"/>
      </g>
    </g>
  </g>
</svg>