<?xml version="1.0" encoding="UTF-8"?>
<svg xmlns="http://www.w3.org/2000/svg" version="1.1" viewBox="0 0 110 135">
  <defs>
    <style>
      .cls-1 {
        fill: #fff;
      }
    </style>
  </defs>
  <!-- Generator: Adobe Illustrator 28.7.0, SVG Export Plug-In . SVG Version: 1.2.0 Build 136)  -->
  <g>
    <g id="Calque_1">
      <g>
        <path class="cls-1" d="M64.2,23.7c-1.7.4-3.1,1.1-4.3,2.2l-.9.8-.7-.2c-.4,0-1.1-.1-1.6,0-3,.2-5.4,3.7-4.9,6.9.4,2.4,2.3,4.5,4.3,4.8,1.1.2,1-.1,1,2.7,0,2.4,0,2.5.3,2.8l.3.3h16.9l.3-.3c.3-.3.3-.4.3-2.3v-1.9l1-.3c1.2-.4,2.1-1,2.9-1.8,3.3-3.6,1.6-9.8-3.1-11.4-1-.4-2.6-.4-3.6,0-.4.1-.7.2-.8.2,0,0-.5-.3-.9-.6-.9-.7-2-1.3-3.1-1.6-.9-.2-2.7-.3-3.5-.2h0ZM68.2,26.8c.6.3,1.2.7,1.7,1.1,1.2,1.2,1.4,1.2,2.6.5.8-.4,1-.4,1.7-.4,1.7,0,3.3,1.2,3.9,2.8.4.9.4,2.4,0,3.3-.3.9-1.4,2-2.2,2.3-.6.2-.6.2-1.1,0-.6-.3-1.3-.4-1.7,0-.3.2-.3.3-.4,2.6v2.4h-13v-2.6c-.1-3.3,0-3.1-1.8-3-1,0-1.2,0-1.8-.2-1.5-.7-2.4-2.5-1.9-4.2.3-.9.8-1.6,1.6-2.1.8-.4,1.6-.5,2.6-.1,1.1.4,1.2.4,2.4-.8.7-.7,1.3-1.2,1.8-1.4,1.7-.9,3.8-.9,5.5-.1h0Z"/>
        <path class="cls-1" d="M32.2,44.9c-.7.3-.9.4-1,.8-.1.3-.1.5.2,1.5.2.6.3,1.2.3,1.3s-.3.5-.6.8c-1.3,1.5-1.5,2.9-.5,4.2.2.2.5.7.7,1.1.7,1.3,1.8,2.2,3,2.5.3,0,.6.2.6.3,0,.1.5,1.4,1,2.8.5,1.4,1.2,3.3,1.5,4.1.3.8.6,1.5.6,1.5,0,0-.3.3-.6.5-.7.6-1.6,1.8-2,2.8-.9,2.7-.6,7.4.7,9.6.7,1.2,2.3,2,3.8,1.8,1-.1,1.5-.3,2.3-.7.6-.3.7-.4,1.2-.3,1.1.2,2.2-.3,3.4-1.5,1.8-1.8,2-3.8.6-6.8-.8-1.7-1.7-2.9-2.8-3.9-1.3-1.3-2.5-1.8-4-2h-.7v-.6c0-.6-.3-1.6-1.4-5.6-.4-1.3-.7-2.5-.7-2.6,0-.3,1-1,1.4-1s.3,0,.4-.2c.1-.2.4-6.9.3-7.3,0-.3-.5-.4-3.6-.5h-2.2c0,0-.3-.9-.3-.9-.4-1.2-.5-1.4-1-1.6-.4-.2-.4-.2-.9,0h0ZM41.8,69.5c.3.6.6,1.2.6,1.2s.7,1.4,1.5,3.1c1.6,3.2,1.7,3.7,1.4,4s-1.1.5-1.4.4c-.3,0-.3-.2-.8-2.1-.3-1.1-.6-2.5-.7-3-.2-1.2-.6-2.5-1-3.8-.2-.5-.3-.9-.2-.9s.3.5.7,1.2h0ZM43.5,68.8c0,.1.6.8,1.1,1.4,1.8,2.4,2.7,3.8,2.7,4.5,0,.5-.6,1.6-.8,1.6s-.3-.1-1.3-3.1c-.4-1.2-1.1-2.8-1.4-3.5-.5-1.1-.6-1.6-.2-1h0ZM40,71.2c.4,1.1,1,3,1.5,4.2,1,2.8,1,3.4.2,3.7-.8.3-.9.2-1.1-.5-.5-2.3-.6-3.2-1-5.7-.2-1.6-.4-3.1-.4-3.4-.1-1,.1-.4.8,1.7h0ZM37.8,71.4c.2,1.7.5,2.7,1.1,5.2.1.5.3,1.2.3,1.7v.7s-.4,0-.4,0c-.6,0-1.3-.6-1.5-1.2-.2-.7,0-8.5.2-8.3,0,0,.2.9.3,1.9h0Z"/>
        <path class="cls-1" d="M57.7,46.1c-.5.5.1,2.8,1.2,4.4,1.3,1.9,3.4,3.5,5.5,4,1,.3,2.9.3,3.9,0,1.8-.5,3.7-1.7,4.9-3.2,1.5-1.8,2.5-4.7,1.8-5.2-.2-.1-1.7-.2-8.7-.2s-8.4,0-8.7.2h0Z"/>
        <path class="cls-1" d="M42.2,48.3c-.1.4-.3,9.3-.2,9.4,0,0,2.7,1.4,5.8,3,3.2,1.6,5.9,3,6,3.1.4.4.5,1,.5,3.9v2.8l1.4.4c4,1.2,7.1,3.6,8.2,6.3.2.6.2.8.2,13.2v12.6s-.4,1.1-.4,1.1c-.3.9-.4,1.4-.4,2.6,0,.8,0,1.6,0,1.8v.3c0,0,6.9,0,6.9,0h6.9s0-15,0-15c0-8.2,0-14.9.1-14.8.1.2.5,2,1.5,6.7.4,2,.8,3.8.9,3.8,0,.1.8.1,4.3-.3,3.3-.3,3.2-.3,3.2-.7,0-.6-1.2-6.4-3.9-18.5-.7-3-1.3-6-1.5-6.6-.3-1.5-.9-2.6-1.7-3.5-.4-.4-1.5-1.2-2.5-1.8-1-.6-2.3-1.5-2.9-1.8l-1-.6h-2.4l-.8.7c-.5.4-1.5,1.4-2.4,2.1-.8.8-1.6,1.4-1.7,1.4s-1.2-1-2.5-2.1l-2.3-2.1h-1.2c-1.2,0-1.7.1-2.5.8-.2.1-.8-.2-3.5-1.7-5.4-3-11.6-6.5-11.9-6.5-.1,0-.2,0-.3,0h0ZM72.4,62.9c0,3,0,4.7-.1,4.9-.1.2-.3.2-5.8.2s-5.7,0-5.8-.1c-.2-.2-.2-9.5,0-9.5s1.2.9,3,2.6c.4.4.8.8.8.8s-.6.7-1.2,1.3c-1.1,1.1-1.2,1.2-1.2,1.6,0,.8.8,1.3,1.6,1,.2,0,.9-.7,1.6-1.3.7-.6,1.3-1.1,1.3-1.1s.6.5,1.3,1.1c.6.6,1.3,1.2,1.5,1.2.7.3,1.6-.4,1.6-1.2s-.5-.8-1.2-1.5c-1.2-1.2-1.2-1.3-1-1.5.7-.7,3.7-3.3,3.8-3.3s0,2.1,0,4.6h0Z"/>
        <path class="cls-1" d="M49.6,71.8s.1.6.3,1.3l.3,1.2h.7c3.5.9,4.2,1.2,6.2,2.1,2.3,1.1,3.9,2.5,4.3,3.9.2.6,0,.7-.7,1.5-2.2,2-6.6,3.5-12,4.1-2.4.3-8.9.3-11.2,0-6.2-.7-11.4-2.4-13.4-4.5-.5-.5-.5-.6-.4-1,.3-1.1,2.6-3,4.9-4.1,1-.5,3.6-1.4,4.4-1.6h.3v-1.2c0-.6,0-1.2-.1-1.2-.1,0-1.7.3-3.1.8-3.4,1.2-6,3-6.9,4.9l-.4.8v11.5c0,8,0,11.7.1,12.1.8,3.6,5.3,6.8,11.5,8.2,2.3.5,4.3.7,7.2.8,7.5.2,13.7-1.4,17.5-4.5,1.6-1.3,2.7-3,3-4.6,0-.5.1-4.3,0-12.4v-11.6s-.3-.6-.3-.6c-.2-.3-.6-1-1-1.4-2-2.2-5.7-3.7-10.7-4.5-.3,0-.5,0-.5,0h0Z"/>
        <path class="cls-1" d="M32.3,76.2c-1.2.5-.9,2.2.4,2.4.5,0,.6,0,1-.4.7-.7.5-1.6-.4-2-.3-.1-.5-.2-.5-.2,0,0-.2,0-.4.2h0Z"/>
        <path class="cls-1" d="M50.6,76.8c-.6.3-1.1.9-1,1.4,0,.6.3.6,1,.2.4-.2.7-.4,1.2-.4,1,0,1.3,0,1.9.7.3.3.7.6.7.5.2-.1.2-.9,0-1.3-.3-.5-.9-1.1-1.4-1.2-.6-.2-1.9-.2-2.4,0h0Z"/>
        <path class="cls-1" d="M28.6,77.9c-.1.1,0,.3.3.7.5.5.6.9.5,1.5,0,.3-.1.5-.3.7-.3.2-.4.2-.9,0-.6-.2-1,0-1,.2s.4.6,1.3.8c.7.2.9.2,1.3,0,.9-.4,1.3-1.7.8-2.9-.4-1-1.6-1.6-2-1.1h0Z"/>
        <path class="cls-1" d="M33.7,79.9c-.3.1-.7.5-.9.9-.4.7-.1,2.1.4,2.2.4,0,.8-.2.9-.6,0-.2.2-.4.3-.4,0,0,.6.4,1.1.9,2.2,2,3.1,2.2,5,1.5.8-.3,1.2-.6,1.2-.9s-.3-.4-1.3-.3c-1.7.2-3.3-.3-4.5-1.5-.6-.5-.6-.6-.5-.9.2-.3,0-.6-.6-.7-.5-.1-.7-.1-1,0h0Z"/>
        <path class="cls-1" d="M56.1,80c-.3.1-.7.4-.9.7-.3.4-.4.5-.4,1.1s.1.9.5.9.5-.4.5-1,.2-.9.7-1c.6,0,1.1.3,1.1.8,0,.3,0,.4.3.4.2,0,.3,0,.5-.4.2-.4.2-.5,0-.9-.4-.8-1.4-1.2-2.3-.7h0Z"/>
        <path class="cls-1" d="M46.3,80.7c-.8.3-1.8,1-2.2,1.6-.3.5-.4,1.2,0,1.5.3.3.5.2,1.1-.4,1.3-1.1,2.8-1.2,5.2-.5,1.3.4,1.5.4,1.7.3.4-.2.5-.8.2-1.1,0,0-.5-.2-.8-.3-.3,0-1.1-.3-1.6-.5-1-.5-2.1-.8-2.6-.8-.2,0-.6,0-1,.2h0Z"/>
        <path class="cls-1" d="M84.1,91.4c-1.1.1-2.4.3-2.8.3h-.8c0,0,0,1,0,1,0,.5-.1,1.2-.1,1.5-.1.8.2,1.5.9,2,.7.5,1.9.9,2.6.8,1.3-.2,2.5-1.1,3.1-2.2.4-.8.4-2.7,0-3.2-.2-.4-.1-.4-2.9,0h0Z"/>
      </g>
    </g>
  </g>
</svg>