<?xml version="1.0" encoding="UTF-8"?>
<svg xmlns="http://www.w3.org/2000/svg" version="1.1" viewBox="0 0 110 135">
  <defs>
    <style>
      .cls-1 {
        fill: #fff;
        fill-rule: evenodd;
      }
    </style>
  </defs>
  <!-- Generator: Adobe Illustrator 28.7.0, SVG Export Plug-In . SVG Version: 1.2.0 Build 136)  -->
  <g>
    <g id="Calque_1">
      <path class="cls-1" d="M53.4,79.3h-5v3.7c.2,1.3,1.2,2.2,2.5,2.2s2.3-.9,2.5-2.2v-3.7ZM61.4,79.3h-5v4.2c0,.7.2,1.5.8,2,.7.7,1.8.9,2.7.5.9-.4,1.6-1.3,1.6-2.3v-4.4h0ZM99.6,56.9h-9.2c-.2,0-.4.2-.4.4v23.9c0,.2.2.5.4.5h9.2c.2,0,.4-.2.4-.5v-23.9c0-.2-.2-.4-.4-.4ZM40.2,75.4l-2,2.8,5.4,3.8,1.8-2.6h0c-2.3-.4-4.3-1.9-5.3-4h0ZM36.7,75.4c-.4.1-.8.1-1.1,0-1-.1-1.9-.8-2.4-1.7-.4-1-.3-2.1.2-2.9l12.4-17.7c.4-.6.9-1,1.6-1.3l6.2-2.9c.6-.3,1.3-.4,2-.4l-13.4,19.1c-.2.2-.4.3-.6.5-.7.7-1.3,1.6-1.6,2.6l-3.3,4.7h0ZM37.1,81l4.3,3-6.1,4,1.8-7ZM65.4,51l-5.4-3.8-13.2,18.9h8.1l10.6-15.1h0ZM61.6,44.8l.9-1.4c1.1-1.5,3.1-1.8,4.6-.8,1.5,1.1,1.8,3.1.8,4.6l-.9,1.3-5.4-3.8ZM81,54.9l-11-5.4.4-.6c1.9-2.8,1.2-6.7-1.6-8.6-2.8-1.9-6.6-1.2-8.6,1.6l-2.8,4c-1.7-.6-3.5-.4-5.1.4l-6.2,2.9h0c-1.1.5-2,1.3-2.7,2.3l-12.4,17.7c-1.1,1.6-1.4,3.7-.6,5.6.8,1.8,2.4,3.2,4.3,3.6l-3.1,12.6c-.2.6,0,1.2.6,1.5.5.4,1.1.4,1.6,0l10.9-7.3c.3-.3.6-.6.8-1,.4,1.9,1.8,3.5,3.7,4.1,1.9.6,3.9.1,5.3-1.2,1.4,1.8,3.8,2.6,6,1.8,2.2-.8,3.7-2.8,3.7-5.1v-3.3c0,0,.1,0,.1.1,3.6,3.7,10.9,3.4,16.6,2.5v19.9c0,1-.8,1.8-1.8,1.8H18.7c-1,0-1.8-.8-1.8-1.8V29h64.1v25.9h0ZM81.8,58.5c.2.1.4.2.7.2h4.5v21.3h-4.8c-5,.8-12.7,1.6-15.7-1.4-1.3-1.3-3.1-2.1-4.9-2.1h-15.2c-2.1,0-3.7-1.7-3.7-3.7s1.7-3.7,3.7-3.7h12c5.5,0,8.9-.8,12.2-5.7.2-.3.3-.7.3-1.1,0-.4-.3-.8-.6-1s-.8-.3-1.1-.2-.7.3-.9.7c-2.7,4-5.1,4.4-9.8,4.4l10-14.2,13.4,6.6h.1c0,0,0,.1,0,.1ZM23.8,20.6c0,2-.7,3.9-2,5.4h60.6c3,0,5.4-2.4,5.4-5.4s-2.4-5.4-5.4-5.4H21.8c1.3,1.5,2,3.4,2,5.4h0ZM14,27.5c0-.8.6-1.4,1.4-1.4,2.2,0,4.2-1.3,5-3.4.8-2,.4-4.4-1.2-5.9-1.6-1.6-3.9-2-5.9-1.2-2,.8-3.4,2.8-3.4,5v50.6c0,.7.6,1.3,1.3,1.3h2.7V27.5ZM22.5,40.2h35.5c.8,0,1.3-.7,1.3-1.5s-.6-1.4-1.3-1.5H22.4c-.8,0-1.3.7-1.3,1.5s.6,1.4,1.3,1.5h0ZM22.5,51.5h16.7c.8,0,1.4-.6,1.4-1.4s-.6-1.5-1.4-1.5h-16.7c-.8,0-1.4.7-1.4,1.5s.6,1.4,1.4,1.4h0ZM22.5,62.7h9.9,0c.8,0,1.3-.7,1.3-1.5s-.6-1.4-1.3-1.5h-9.9c-.8,0-1.3.7-1.3,1.5s.6,1.4,1.3,1.5h0ZM22.5,74h4.4c.8,0,1.5-.7,1.5-1.5s-.7-1.4-1.5-1.4h-4.4c-.8,0-1.4.6-1.4,1.4s.6,1.4,1.4,1.4h0ZM22.5,85.2h7.8c.8,0,1.3-.7,1.3-1.5s-.6-1.4-1.3-1.5h-7.8c-.8,0-1.3.7-1.3,1.5s.6,1.4,1.3,1.5h0ZM22.5,96.5h53c.8,0,1.4-.7,1.4-1.5s-.6-1.5-1.4-1.5H22.4c-.8,0-1.4.7-1.4,1.5s.6,1.4,1.4,1.4h0Z"/>
    </g>
  </g>
</svg>