<?xml version="1.0" encoding="UTF-8"?>
<svg xmlns="http://www.w3.org/2000/svg" version="1.1" viewBox="0 0 110 135">
  <defs>
    <style>
      .cls-1 {
        fill: #fff;
      }
    </style>
  </defs>
  <!-- Generator: Adobe Illustrator 28.7.0, SVG Export Plug-In . SVG Version: 1.2.0 Build 136)  -->
  <g>
    <g id="Calque_1">
      <path class="cls-1" d="M56.6,48.3c0,6.5-4.6,12-10.8,13.2v4c0,1.5-1.2,2.8-2.8,2.8s-2.8-1.2-2.8-2.8v-6.4c0-1.5,1.2-2.8,2.8-2.8,4.4,0,8-3.6,8-8s-3.6-8-8-8-6.7,2.4-7.7,5.8c-.4,1.5-1.9,2.3-3.4,1.9-1.5-.4-2.3-2-1.9-3.4,1.7-5.8,7-9.8,13-9.8s13.5,6.1,13.5,13.5h0ZM43,69.9c-2.3,0-4.1,1.9-4.1,4.1s1.9,4.1,4.1,4.1,4.1-1.9,4.1-4.1-1.9-4.1-4.1-4.1ZM99.4,111c-1.9,1.9-4.3,2.8-6.7,2.8s-4.9-.9-6.7-2.8l-24.5-24.5c-5.5,3.4-11.8,5.2-18.4,5.2-19.4,0-35.2-15.8-35.2-35.2S23.6,21.2,43,21.2s35.2,15.8,35.2,35.2-1.3,11.1-3.8,16l25.1,25.1c3.7,3.7,3.7,9.8,0,13.5h0ZM43,86.1c6.2,0,12.1-1.9,17.2-5.5,1.7-1.2,3.2-2.6,4.7-4.1.4-.4.7-.9,1.1-1.3.9-1.2,1.9-2.4,2.6-3.7,2.7-4.5,4.1-9.8,4.1-15.1,0-16.4-13.3-29.7-29.7-29.7s-29.7,13.3-29.7,29.7,13.3,29.7,29.7,29.7h0ZM95.5,101.4l-24.1-24.1h0c-.8,1.1-1.6,2.1-2.4,3-.2.2-.4.4-.6.6-.7.7-1.4,1.4-2.1,2.1,0,0,0,0-.1.1l23.9,23.9c1.6,1.6,4.1,1.6,5.6,0,1.6-1.6,1.6-4.1,0-5.6h0Z"/>
    </g>
  </g>
</svg>