<?xml version="1.0" encoding="UTF-8"?>
<svg xmlns="http://www.w3.org/2000/svg" version="1.1" viewBox="0 0 110 135">
  <defs>
    <style>
      .cls-1 {
        fill: #fff;
        fill-rule: evenodd;
      }
    </style>
  </defs>
  <!-- Generator: Adobe Illustrator 28.7.0, SVG Export Plug-In . SVG Version: 1.2.0 Build 136)  -->
  <g>
    <g id="Calque_1">
      <path class="cls-1" d="M61.3,27.6c.5-.2,1,0,1.2.4,2.7,4.6,3.5,8.6,3.1,12-.4,3.4-1.9,6-3.7,7.9-1.1,1.1-2.5,1.7-3.8,1.7-.1,1.1-.2,2.3-.3,3.4.8-.3,1.7-.5,2.6-.6.2-.5.4-.9.8-1.3,1.2-1.3,3-2.4,5.3-2.7,2.3-.3,5,.4,8.1,2.4.4.3.6.7.4,1.2-1.6,4.5-7.4,7.4-12.8,4.7-.9-.5-1.6-1.3-1.8-2.2-1.1.2-2,.5-2.7.8,0,1-.1,2-.2,3-.2,3.3-.2,8.5,0,12.1,4.3,1.6,9.4,4.8,14.9,9.6,4.6.6,9.1.8,13.2.5,4.6-.4,9.5,3,9.5,7.9v10.2c0,5-4,9-9,9H24c-5,0-9-4-9-9v-16.4c0-1.8.7-3.7,2.3-4.8,3.6-2.6,8.4-3.5,13.8-3.4,3.8,0,7.9.5,12.2,1.1.9-2.2,2.4-3.8,4.2-4.7,1.9-1,4.2-1.2,6.8-.7.4,0,.8.2,1.2.3-.2-3.6-.1-8.4,0-11.5,0,0,0-.2-.2-.3-.2-.2-.4-.5-.8-.9-.5-.5-1.2-1-1.9-1.6-.6.6-1.3,1-2.2,1.1-8,1.1-13.7-5.3-13.3-11.5,0-.5.4-.8.8-.9,4.9-.9,8.5-.1,11,1.5,2.5,1.6,3.9,4,4.6,6.2.2.7.2,1.3,0,1.9.8.6,1.5,1.1,2,1.6,0-.3,0-.5,0-.8.1-1.8.3-3.5.5-5.2-1.4-.5-2.6-1.4-3.4-2.8-2.7-4.8-2-9,.1-12.3,2.1-3.2,5.6-5.5,8.4-6.6h0ZM43,83.5c0-1.7,1.3-3,3-3s3,1.3,3,3-1.3,3-3,3-3-1.3-3-3ZM82,88.5c0-1.7,1.3-3,3-3s3,1.3,3,3-1.3,3-3,3-3-1.3-3-3ZM28,89.5c-1.7,0-3,1.3-3,3s1.3,3,3,3,3-1.3,3-3-1.3-3-3-3ZM73,96.5c0-1.7,1.3-3,3-3s3,1.3,3,3-1.3,3-3,3-3-1.3-3-3ZM56,95.5c-1.7,0-3,1.3-3,3s1.3,3,3,3,3-1.3,3-3-1.3-3-3-3Z"/>
    </g>
  </g>
</svg>