<?xml version="1.0" encoding="UTF-8"?>
<svg xmlns="http://www.w3.org/2000/svg" version="1.1" viewBox="0 0 1200 1200">
  <defs>
    <style>
      .cls-1 {
        fill: #fff;
      }
    </style>
  </defs>
  <!-- Generator: Adobe Illustrator 28.7.0, SVG Export Plug-In . SVG Version: 1.2.0 Build 136)  -->
  <g>
    <g id="Calque_1">
      <path class="cls-1" d="M496.9,234.4c7,0,13.5-2.1,19.2-5.4,8.5,17.3,22.3,32.1,40.7,41.7,13.8,7.2,28.6,10.6,43.2,10.6,33.8,0,66.5-18.4,83.2-50.4,1.2-2.3,2.2-4.7,3.2-7.1,6.8,6.6,15.9,10.7,26.1,10.7,20.7,0,37.5-16.8,37.5-37.5s-10.6-30.1-25.2-35.3c4.1-6,6.4-13.2,6.4-21,0-20.7-16.8-37.5-37.5-37.5s-23.5,6.2-30.3,15.5c-6-5.5-12.6-10.4-20.2-14.3-13.8-7.2-28.6-10.6-43.2-10.6s-37.4,5.9-53,16.7c-6.2-4.5-13.8-7.3-22-7.3-20.7,0-37.5,16.8-37.5,37.5s2.1,13.5,5.4,19.1c-18.8,2-33.5,17.7-33.5,37.1s16.8,37.5,37.5,37.5h0ZM666.5,222.1c-13,24.9-38.5,40.4-66.6,40.4s-23.7-2.9-34.6-8.5c-17-8.8-29-23.3-35.3-39.9-2.4-6.3-3.9-12.8-4.6-19.5,3-.4,5.8-1,8.5-1.7,35.8-8.5,55.1-35.8,65.1-58.5,4.9,14.8,15.8,28.9,39.7,28.9,0,0-2.1,35.2,33.8,42.9-1.4,5.4-3.4,10.8-6,15.9h0Z"/>
      <path class="cls-1" d="M315.9,441.5c36.7-19.1,51-64.4,31.9-101.1-19.1-36.7-64.4-51-101.1-31.9-36.7,19.1-51,64.4-31.9,101.1,19.1,36.7,64.4,51,101.1,31.9Z"/>
      <path class="cls-1" d="M195.3,1001.1l37.3,6.4,9.3,1.6,9.3,1.6,29.5-90.2,46.6-142.4h-19.7l-34.5,105.3c-14.8-35.3-49.6-60.5-90.7-60.5s-100.3,46.2-98.4,101.9l2.6,72.2c1.8,50.5,43.2,90.4,93.7,90.4h15.4v.2c.4,0,.7-.2,1.1-.2h112.8c5.2,0,9.4-4.2,9.4-9.4s-.5-6.3-1.1-9.4c-3.7-17.1-17.3-30.6-35.2-33.6l-9.5-1.6-27.9-4.8-9.3-1.6-9.3-1.6-34.6-5.9c-1.6-.3-3-.7-4.5-1.2-11.2-3.9-18.9-14.4-18.9-26.5v-54.4c0-5.2,4.2-9.4,9.4-9.4s9.4,4.2,9.4,9.4v54.4c0,4.6,3.3,8.5,7.8,9.2h0Z"/>
      <path class="cls-1" d="M102.4,682.8c3.1.9,6.3,1.5,9.6,1.5.2,0,.3,0,.5,0,4,0,7.7-.8,11.3-1.9-13.4,21.7-15.5,49.8-2.8,74.1,13.4,25.7,39.5,40.4,66.6,40.4s23.5-2.7,34.6-8.5c13.1-6.8,23.3-17.1,30.2-29,12.4-21.5,13.9-48.5,1.6-72.1-13.4-25.7-39.5-40.4-66.6-40.4s-6,.2-9,.6c-8.7,1.1-17.4,3.7-25.6,7.9-1.7.9-3.2,1.8-4.8,2.8,1.1-3.6,1.9-7.3,1.9-11.3s0-.3,0-.5c0-3.3-.6-6.5-1.5-9.6-4.4-15.8-18.8-27.5-36-27.5s-37.5,16.8-37.5,37.5,11.6,31.5,27.4,36h0Z"/>
      <path class="cls-1" d="M902.9,441.5c36.7,19.1,82,4.9,101.1-31.9,5.1-9.8,7.8-20.2,8.3-30.5,5.2,2.8,11.2,5.4,18.1,7.4,23.3,6.9,47.2-3.2,63.9-13.5,6.6-4.1,5.4-13.9-1.9-16.7-20.1-7.8-39.7-32-51.2-51.1-18-29.9-48-14.4-48-14.4-10.2,4.8-15.3,12-17.5,19.7-1.2-.7-2.4-1.5-3.6-2.1-36.7-19.1-82-4.9-101.1,31.9-19.1,36.7-4.9,82,31.9,101.1h0Z"/>
      <path class="cls-1" d="M1065.9,655.4c-10-5.2-20.6-7.8-31.2-8.3-1.1,0-2.2-.2-3.4-.2-27.1,0-53.2,14.7-66.6,40.4-12.3,23.6-10.7,50.7,1.6,72.1,6.9,11.9,17.1,22.2,30.2,29,11.1,5.8,22.9,8.5,34.6,8.5,27.1,0,53.2-14.7,66.6-40.4,19.1-36.7,4.9-82-31.9-101.2h0Z"/>
      <path class="cls-1" d="M1030.6,822.9c-42.6,0-78.5,27-92.4,64.4l-35.8-109.2h-19.7l49.8,152,26.8,81.9,9.3-1.6,9.3-1.6,45.4-7.8c4.5-.8,7.8-4.7,7.8-9.2v-54.4c0-5.2,4.2-9.4,9.4-9.4s9.4,4.2,9.4,9.4v54.4c0,12.2-7.7,22.7-18.9,26.5-1.4.5-2.9.9-4.5,1.2l-42.6,7.3-9.3,1.6-9.3,1.6-25.3,4.3-4,.7c-17.9,3-31.4,16.6-35.2,33.6-.7,3-1.1,6.1-1.1,9.4,0,5.2,4.2,9.4,9.4,9.4h112.8c.4,0,.7.2,1.1.2v-.2h9.8c50.5,0,91.9-40,93.7-90.4l2.6-72.2c2-55.7-42.6-101.9-98.4-101.9h0Z"/>
      <path class="cls-1" d="M772.8,609.4h54.7l17.6,53.7,9.1,27.9,9.4-1.6,9.3-1.6,13.5-2.3c5.2-.9,9.9,2.6,10.8,7.7.8,4.7-2.2,9.1-6.7,10.4-.4.1-.6.3-1,.4l-10.7,1.8-9.3,1.6-9.4,1.6-11.9,2-41.8,7c-15.7,2.6-27,16.1-27,32s4.2,9.4,9.4,9.4h156.6c-10.9-25.1-10.9-54.7,2.7-80.8,16.2-31.1,48.1-50.4,83.2-50.4,1.3,0,2.7.2,4,.2l1.7-50.3c1.8-55.8-42.9-102-98.7-102s-102.3,48.3-98.6,105.3l1,15c-3.4-3.5-8.1-5.7-13.2-5.7h-55.8l1.2,18.7Z"/>
      <path class="cls-1" d="M881.8,1068.8H337c.5,3.1.8,6.2.8,9.4s-.7,6.4-1.7,9.4h546.6c-1.1-2.9-1.7-6.1-1.7-9.4,0-3.2.4-6.3.8-9.4h0Z"/>
      <path class="cls-1" d="M424.3,759.4c5.2,0,9.4-4.2,9.4-9.4,0-15.9-11.4-29.3-27.1-32l-41.8-7-14.6-2.5-18.7-3.1-8-1.3c-.5,0-.9-.4-1.4-.5-4.3-1.5-7.1-5.7-6.3-10.3.9-5.1,5.6-8.6,10.8-7.7l10.8,1.8,18.7,3.1,12.6-38.5,14-42.6h49.5l1.1-18.8h-50.7c-3.7,0-7.1,1.2-10.1,3.1l.8-12.4c3.8-57-41.4-105.3-98.6-105.3s-100.6,46.2-98.7,102l1.7,50.6c3.2-.3,6.4-.6,9.6-.6,35.1,0,67,19.3,83.2,50.4,13.6,26.1,13.6,55.7,2.7,80.8h151Z"/>
      <path class="cls-1" d="M475.5,649.7c12.6,0,23-8.9,24.9-21.1l3.1-19.3,1.1-7h0s.3-2.3.3-2.3l1-9.4,9.7-87.6c.6-5-.2-10-2.3-14.6l-.9-2.1c-5.4-12.1-8.2-25-8.2-38.3v-26.1c0-5.2,4.2-9.4,9.4-9.4s9.4,4.2,9.4,9.4v26.1c0,10.6,2.2,20.9,6.5,30.6l.9,2.1c3.4,7.6,4.7,16,3.8,24.3l-9.5,85.6h154.8l-9.5-85.6c-.9-8.3.4-16.7,3.8-24.3l.9-2.1c4.3-9.7,6.5-20,6.5-30.6v-26.2c0-5.2,4.2-9.4,9.4-9.4s9.4,4.2,9.4,9.4v26.1c0,13.3-2.8,26.2-8.2,38.3l-.9,2.1c-2,4.6-2.8,9.6-2.3,14.6l9.7,87.7.6,5.6c.3.7.7,1.4.8,2.2l.2,1.5,1.5,9.4,3.1,19.3c2,12.2,12.4,21.1,24.7,21.1s13.8-2.8,18.7-8c4.8-5.2,7.2-11.9,6.8-18.9l-.8-13.4-1.1-18.8-12.2-199.4c-1.4-21.9-10.3-42.9-25-59.1-18.5-20.5-44.7-32.1-72-32.1h-82.2c-27.3,0-53.5,11.6-71.8,31.8-15,16.5-23.8,37.6-25.2,59.4l-12.2,199.4-1.1,18.8-.8,13.4c-.5,7.1,2,13.8,6.8,19,4.8,5.2,11.4,8,18.4,8h0Z"/>
    </g>
  </g>
</svg>