<?xml version="1.0" encoding="UTF-8"?>
<svg xmlns="http://www.w3.org/2000/svg" version="1.1" viewBox="0 0 110 135">
  <defs>
    <style>
      .cls-1 {
        fill: #fff;
      }
    </style>
  </defs>
  <!-- Generator: Adobe Illustrator 28.7.0, SVG Export Plug-In . SVG Version: 1.2.0 Build 136)  -->
  <g>
    <g id="Calque_1">
      <path class="cls-1" d="M8.5,43.4v69.5s21.2,0,21.2,0V43.4H8.5ZM82.4,22.5c-.1-.1-.2-.2-.3-.4-.3,0-.6,0-.9,0s-.6,0-.9,0c0,.2-.2.3-.3.4-3.2,2.7-5.5,5.7-7,8.9-1.4,3.1-2.1,6.5-1.9,10.1h20.3c.1-3.6-.5-6.9-1.9-10.1-1.5-3.2-3.8-6.2-7-8.9h0ZM85.3,22.5c2.6,2.5,4.5,5.2,5.8,8,1.6,3.4,2.3,7,2.1,10.9h8.2c-.3-5.2-2.5-9.9-5.9-13.4-2.7-2.7-6.3-4.7-10.2-5.5h0ZM69,41.4c-.1-3.9.6-7.5,2.1-10.9,1.3-2.9,3.3-5.5,5.8-8-3.9.8-7.5,2.8-10.2,5.5-3.5,3.5-5.7,8.2-5.9,13.4h8.2ZM84,102.5h8.3v-8.1h-8.3v8.1ZM92.3,104.5h-8.3v8.4h8.3v-8.4ZM84,92.4h8.3v-8.1h-8.3v8.1ZM84,82.2h8.3v-8.1h-8.3v8.1ZM84,72.1h8.3v-8.1h-8.3v8.1ZM84,62h8.3v-8.1h-8.3v8.1ZM84,51.8h8.3v-8.4h-8.3v8.4ZM82,112.9V43.4h-21.2v69.5h21.2ZM94.3,43.4v69.5h7.2V43.4h-7.2ZM30.1,22.5c-.1-.1-.2-.2-.3-.4-.3,0-.6,0-.9,0s-.6,0-.9,0c0,.2-.2.3-.3.4-3.2,2.7-5.5,5.7-7,8.9-1.4,3.1-2.1,6.5-1.9,10.1h20.3c.1-3.6-.5-6.9-1.9-10.1-1.5-3.2-3.8-6.2-7-8.9h0ZM33,22.5c2.6,2.5,4.5,5.2,5.8,8,1.6,3.4,2.3,7,2.1,10.9h8.2c-.2-5.2-2.4-9.9-5.9-13.4-2.8-2.8-6.3-4.7-10.2-5.6h0ZM16.7,41.4c-.1-3.9.6-7.5,2.1-10.9,1.3-2.9,3.3-5.5,5.8-8-3.9.8-7.5,2.8-10.2,5.5-3.5,3.5-5.7,8.2-5.9,13.4h8.2ZM31.7,102.5h8.3v-8.1h-8.3v8.1ZM40,104.5h-8.3v8.4h8.3v-8.4ZM31.7,92.4h8.3v-8.1h-8.3v8.1ZM31.7,82.2h8.3v-8.1h-8.3v8.1ZM31.7,72.1h8.3v-8.1h-8.3v8.1ZM31.7,62h8.3v-8.1h-8.3v8.1ZM31.7,51.8h8.3v-8.4h-8.3v8.4ZM42,112.9h7.2V43.4h-7.2v69.5Z"/>
    </g>
  </g>
</svg>