<?xml version="1.0" encoding="UTF-8"?>
<svg xmlns="http://www.w3.org/2000/svg" version="1.1" viewBox="0 0 110 135">
  <defs>
    <style>
      .cls-1 {
        fill: #fff;
      }
    </style>
  </defs>
  <!-- Generator: Adobe Illustrator 28.7.0, SVG Export Plug-In . SVG Version: 1.2.0 Build 136)  -->
  <g>
    <g id="Calque_1">
      <g>
        <path class="cls-1" d="M49,86.3h6.2l-8.4-11.6h3.9l-11.8-16.2-11.8,16.2h3.9l-8.4,11.6h6.2l-10.3,14.2h18.2v7.2h4.3v-7.2h18.2l-10.3-14.2Z"/>
        <path class="cls-1" d="M84.2,92.7h4.3l-5.9-8.1h2.7l-8.2-11.4-8.2,11.4h2.7l-5.9,8.1h4.4l-7.2,9.9h12.8v5h3v-5h12.8l-7.2-9.9Z"/>
        <path class="cls-1" d="M81.7,45.8l-11.6,14-25.5-32.5L10,69.1l4.4,3.6,30.1-36.3,28.4,36.2,4.5-3.5-3.7-4.7,7.9-9.5,13.9,17.8,4.5-3.5-18.3-23.3Z"/>
      </g>
    </g>
  </g>
</svg>