<?xml version="1.0" encoding="UTF-8"?>
<svg xmlns="http://www.w3.org/2000/svg" version="1.1" viewBox="0 0 270.5 320.5">
  <defs>
    <style>
      .cls-1 {
        fill: #fff;
      }
    </style>
  </defs>
  <!-- Generator: Adobe Illustrator 28.7.0, SVG Export Plug-In . SVG Version: 1.2.0 Build 136)  -->
  <g>
    <g id="Calque_1">
      <g>
        <path class="cls-1" d="M65.1,117.8l-8,4.5,2.6,9c2.4-2,4.9-3.7,7.2-5.3l-1.8-8.2Z"/>
        <path class="cls-1" d="M57.5,133.1l-3.5-8.5-8.2,9.5,4.4,6.7c2.1-2.7,4.6-5.3,7.4-7.7Z"/>
        <path class="cls-1" d="M76.7,113.6l-8.4,2.6.7,8.4c3.4-2.2,6.3-3.8,7.9-4.7v-6.3Z"/>
        <path class="cls-1" d="M97.6,103.4c3.4-2.7,7-4.7,10.8-4.7,2.3,0,4.6.8,6.5,2.5,2.8,2.5,4.2,5.8,4.5,9.3.4.6.9,1.2,1.4,1.8.9-7.6-2.7-15.8-9.1-16.9-6.4-1.1-15.1,2.5-19,12.6,1.5-1.6,3.2-3.2,4.8-4.6Z"/>
        <path class="cls-1" d="M164.2,139.8c-4.4.9-8.7,1.3-12.8,1.4.7.8,1.8,1.4,3,1.4h17.4l7.9,22.4h-22.8c-.1-.5-.3-1-.5-1.4-1.4-2.8-3.9-4.8-7-5.5l-30.9-6.3c-.9-6.6-.7-13.6-.1-20.3-1.6-1.1-3-2.3-4.2-3.3-1.3,2.3-2.8,4.6-4.5,6.8-5.5,7.3-12.5,14.1-19.5,18.6,0,.4.2.9.2,1.3,1.3,4.9,3.5,8,6,10h-8.5c1.2-2.3,1.8-4.6,1.7-7.2,0-.9-.2-2.1-.4-3.5-.2-1-.4-2.2-.6-3.4-1.5-7.2-4.1-17.3-5.9-23.9.4-.7,1-1.7,1.8-2.9,1.6-2.4,3.8-5.7,6.4-9-2.9,12.4-3.2,21.9-1.2,35.1,6.2-4.3,12.6-10.5,17.5-17.1,1.8-2.4,3.3-4.8,4.7-7.2-6.5-6.5-9.6-12.9-10.3-14.7h0s0,0,0,0c-1-2.4-.7-5,.5-7.1-.8.5-1.5,1.1-2.3,1.7-3.1,2.5-6.2,5.9-8.8,9.3h0s-2-1.6-2-1.6l-.5-.4h0c-2.8,3.6-5.2,7.1-6.8,9.7-.4-1.5-.7-2.3-.7-2.3,0,0-.7.4-2,1.1-7.5,4.2-33.7,20.1-30.5,34.9,2,9.1,7.4,15.8,13.2,19.2,5.2,3.1,10.8,3.6,14.6,1.1,1.8-1.2,3.5-2.4,5-3.7h6.1l-7.9,15.5c-4.3-1.6-8.9-2.5-13.7-2.5-21.2,0-38.4,17.2-38.4,38.4,0,21.2,17.2,38.4,38.4,38.4,19.9,0,36.2-15.1,38.2-34.4h26.5c1.4,3.5,4.7,6.1,8.7,6.4.2,0,.4,0,.6,0,5.2,0,9.6-4.1,10-9.4l.9-14.9,33.1-35,5.1,14.3c-12.9,6.2-21.9,19.4-21.9,34.7,0,21.2,17.2,38.4,38.4,38.4,21.2,0,38.4-17.2,38.4-38.4,0-21.2-17.2-38.4-38.4-38.4-3.1,0-6.1.4-9,1.1l-18.6-52.4h-7.3c-.2.6-.5,1.2-.9,1.8-1.2,1.8-3,3-5.1,3.4ZM96,173.1h14.2l16.6,13.3-6.7,13.1c-2.5,4.9-.6,10.9,4.4,13.5,1.5.7,3,1.1,4.5,1.1s.7,0,1.1,0l-.4,6.5h-26.1c-1.2-11.8-7.8-22.1-17.3-28.2l9.7-19.1ZM95.6,220.4h-23.6l10.7-21c1.5,1.1,3,2.2,4.3,3.6,4.6,4.6,7.7,10.7,8.6,17.5ZM86.9,245.9c-5.5,5.5-13.1,8.9-21.5,8.9-8.4,0-16-3.4-21.5-8.9-5.5-5.5-8.9-13.1-8.9-21.5,0-8.4,3.4-16,8.9-21.5,5.5-5.5,13.1-8.9,21.5-8.9,3.5,0,6.9.6,10.1,1.7l-13.7,26.9c-.6,1.2-.6,2.7.2,3.9.7,1.2,2,1.9,3.4,1.9h30.1c-.9,6.8-4,12.9-8.6,17.5ZM151.1,198l.7-11.8c0-1.3-.1-2.6-.5-3.8l4.8-9.3h18.6l-23.6,25ZM205.1,194c8.4,0,16,3.4,21.5,8.9,5.5,5.5,8.9,13.1,8.9,21.5,0,8.4-3.4,16-8.9,21.5-5.5,5.5-13.1,8.9-21.5,8.9-8.4,0-16-3.4-21.5-8.9-5.5-5.5-8.9-13.1-8.9-21.5,0-8.4,3.4-16,8.9-21.5,2.2-2.2,4.8-4.1,7.7-5.6l10.1,28.4c.6,1.6,2.1,2.7,3.8,2.7s.9,0,1.3-.2c2.1-.7,3.2-3,2.4-5.1l-10.1-28.4c2-.4,4.1-.7,6.3-.7Z"/>
        <path class="cls-1" d="M137.6,66.8c-.8-1.4-1.9-2.8-3.1-4-7.1-6.9-18.5-6.7-25.5.4-6.9,7.1-6.7,18.5.4,25.4,7.1,6.9,18.5,6.7,25.4-.4,3.1-3.2,4.7-7.2,5-11.3-2.4-.7-4.9-1.3-7.5-1.9-6.6-1.4-12.4-3.1-16.4-4.7,3.9.9,8.9,1.8,14.4,2.4,6.8.8,13,1.1,17.4.9,3.9-.2,6.4-.7,6.5-1.6.2-1.4-5.9-3.4-14.7-4.9-.6-.1-1.3-.2-2-.3Z"/>
        <path class="cls-1" d="M122.3,116.2c-2.8-2.7-4.7-5.4-5.9-7.4-.6-1-1-1.8-1.3-2.3-.1-.3-.2-.5-.3-.6,0,0,0,0,0,0h0c-1.3-3.3-5.1-4.8-8.4-3.5-3.3,1.3-4.8,5.1-3.5,8.4h0c.2.5,3.1,7.5,10.5,14.7,7.3,7.1,19.3,14.3,36.5,14.3h.2c4.3,0,9-.4,13.9-1.4,3.5-.7,5.7-4,5.1-7.5-.7-3.5-4-5.7-7.5-5.1-4.2.8-8,1.2-11.5,1.2-13.7,0-22.1-5.3-27.7-10.7Z"/>
      </g>
    </g>
  </g>
</svg>