<?xml version="1.0" encoding="UTF-8"?>
<svg id="Calque_2" data-name="Calque 2" xmlns="http://www.w3.org/2000/svg" viewBox="0 0 100 100">
  <defs>
    <style>
      .cls-1 {
        fill: #9c9b9b;
      }

      .cls-1, .cls-2, .cls-3, .cls-4, .cls-5 {
        stroke-width: 0px;
      }

      .cls-2 {
        fill: #e1000f;
      }

      .cls-3 {
        fill: none;
      }

      .cls-4 {
        fill: #000091;
      }

      .cls-5 {
        fill: #fff;
      }
    </style>
  </defs>
  <g id="Calque_1-2" data-name="Calque 1">
    <g id="Calque_1-3" data-name="Calque 1">
      <path id="Devise_Républicaine" data-name="Devise Républicaine" class="cls-5" d="M31.81,68.83c.2,0,.36.13.26.49l-.88.2c.16-.36.43-.69.62-.69M32.3,70.27h-.16c-.23.26-.46.46-.69.46s-.36-.13-.36-.46c0-.13,0-.26.03-.39l1.41-.46c.26-.65-.07-.95-.46-.95-.65,0-1.44,1.11-1.44,2.1,0,.43.2.69.52.69.43,0,.82-.39,1.15-.98M32.04,68.2l.98-.92v-.1h-.52l-.62,1.05h.16v-.03ZM29,68.86h.46l-.75,2.03c-.07.16.03.36.2.36.43,0,1.11-.43,1.34-.98h-.13c-.2.2-.56.46-.85.52l.69-1.9h.69l.1-.29h-.69l.26-.72h-.26l-.49.72-.59.07v.2h.03ZM28.34,68.76c.07-.2-.07-.29-.16-.29-.39,0-.88.36-1.08.88h.13c.13-.2.36-.39.56-.43l-.79,2.03c-.07.2.07.29.16.29.39,0,.85-.36,1.05-.88h-.13c-.13.2-.36.39-.56.43l.82-2.03ZM28.5,67.75c.2,0,.33-.16.33-.33,0-.2-.16-.33-.33-.33-.2,0-.33.16-.33.33-.03.16.13.33.33.33M23.99,70.86c-.1.23,0,.39.23.39.13,0,.2-.03.26-.2l.56-1.44c.26-.29.75-.62.98-.62.16,0,.13.13.03.29l-.82,1.6c-.07.16.03.36.2.36.39,0,.88-.36,1.08-.88h-.13c-.13.2-.36.39-.56.43l.72-1.44c.1-.2.13-.36.13-.49,0-.23-.13-.39-.39-.39-.36,0-.72.39-1.15.88v-.39c0-.26-.1-.52-.33-.52-.16,0-.29.13-.43.33v.07c.26,0,.39.39.2.79l-.59,1.24ZM23.99,69.09c.1-.33.03-.62-.2-.62-.29,0-.39.23-.69.88v-.39c0-.26-.1-.52-.33-.52-.29,0-.56.46-.75.88h.13c.13-.2.26-.33.36-.33.13,0,.2.2,0,.62l-.56,1.21c-.1.23,0,.39.23.39.13,0,.2-.03.26-.2l.56-1.44c.16-.2.29-.36.46-.52h.52v.03ZM20.84,68.83c.2,0,.36.13.26.49l-.88.2c.16-.36.43-.69.62-.69M21.33,70.27h-.16c-.23.26-.46.46-.69.46s-.36-.13-.36-.46c0-.13,0-.26.03-.39l1.41-.46c.26-.65-.07-.95-.46-.95-.65,0-1.44,1.11-1.44,2.1,0,.43.2.69.52.69.43,0,.82-.39,1.15-.98M17.99,68.86h.46l-.75,2.03c-.07.16.03.36.2.36.43,0,1.11-.43,1.34-.98h-.13c-.2.2-.56.46-.85.52l.69-1.9h.69l.1-.29h-.69l.26-.72h-.26l-.49.72-.59.07v.2h.03ZM15.44,70.43c0-.62.69-1.47,1.08-1.47.1,0,.16,0,.23.03l-.39,1.08c-.23.29-.59.62-.75.62-.1.03-.16-.07-.16-.26M17.57,68.34h-.23l-.23.23h-.07c-1.18,0-2.16,1.31-2.16,2.26,0,.26.16.43.43.43.29,0,.59-.43.92-.88v.16c-.03.46.1.72.36.72.29,0,.56-.46.75-.88h-.13c-.13.2-.26.33-.36.33s-.2-.2,0-.62l.72-1.74ZM15.11,69.09c.1-.33.03-.62-.2-.62-.29,0-.39.23-.69.88v-.39c0-.26-.1-.52-.33-.52-.29,0-.56.46-.75.88h.13c.13-.2.26-.33.36-.33.13,0,.2.2,0,.62l-.56,1.21c-.1.23,0,.39.23.39.13,0,.2-.03.26-.2l.56-1.44c.16-.2.29-.36.46-.52h.52v.03ZM11.18,71.15l.07-.16c-.69-.13-.75-.13-.49-.85l.26-.75h.75c.33,0,.33.13.29.49h.2l.46-1.24h-.2c-.16.29-.29.49-.65.49h-.75l.39-1.08c.13-.33.2-.43.65-.43h.33c.46,0,.52.13.52.62h.2l.16-.85h-2.82l-.07.16c.56.1.59.16.33.85l-.62,1.67c-.26.69-.36.75-.98.85l-.03.16h2v.07ZM25,62.47c.2,0,.36.13.26.49l-.88.2c.16-.39.43-.69.62-.69M25.49,63.88h-.16c-.23.26-.46.46-.69.46s-.36-.13-.36-.46c0-.13,0-.26.03-.39l1.41-.46c.26-.65-.07-.95-.46-.95-.65,0-1.44,1.11-1.44,2.1,0,.43.2.69.52.69.43,0,.82-.36,1.15-.98M25.2,61.82l.98-.92v-.1h-.52l-.62,1.05h.16v-.03ZM22.15,62.47h.46l-.75,2.03c-.07.16.03.36.2.36.43,0,1.11-.43,1.34-.98h-.13c-.2.2-.56.46-.85.52l.69-1.9h.69l.1-.29h-.69l.26-.72h-.26l-.49.72-.59.07v.2h.03ZM21.53,62.38c.07-.2-.07-.29-.16-.29-.39,0-.88.36-1.08.88h.13c.13-.2.36-.39.56-.43l-.79,2.03c-.07.2.07.29.16.29.39,0,.85-.36,1.05-.88h-.13c-.13.2-.36.39-.56.43l.82-2.03ZM21.66,61.36c.2,0,.33-.16.33-.33,0-.2-.16-.33-.33-.33-.2,0-.33.16-.33.33,0,.2.13.33.33.33M18.94,64.41l1.41-3.73-.03-.07-.88.1v.1l.16.13c.16.13.1.23-.03.62l-1.11,2.91c-.07.16.03.36.2.36.39,0,.85-.36,1.05-.88h-.13c-.13.23-.43.43-.62.46M16.26,64.08c0-.62.69-1.47,1.08-1.47.1,0,.16,0,.23.03l-.39,1.08c-.23.29-.59.62-.75.62-.13,0-.16-.1-.16-.26M18.39,61.98h-.23l-.23.23h-.03c-1.18,0-2.16,1.31-2.16,2.26,0,.26.16.43.43.43.29,0,.59-.43.92-.88v.16c-.03.46.1.72.36.72.29,0,.56-.46.75-.88h-.13c-.13.2-.26.33-.36.33s-.2-.2,0-.62l.69-1.74ZM13.21,65.36c0-.26.26-.43.62-.59.13.07.29.13.56.2.39.13.52.16.52.29,0,.26-.43.43-1.02.43-.46.03-.69-.07-.69-.33M14.26,63.72c-.16,0-.23-.13-.23-.29,0-.46.23-1.11.62-1.11.16,0,.23.13.23.29,0,.43-.26,1.11-.62,1.11M15.37,65.09c0-.33-.29-.46-.75-.59-.39-.13-.59-.16-.59-.29,0-.1.1-.23.26-.33.65-.03,1.11-.62,1.11-1.15,0-.1-.03-.2-.07-.29h.56l.1-.29h-.88c-.1-.07-.23-.1-.36-.1-.72,0-1.18.62-1.18,1.11,0,.39.23.62.56.69-.33.16-.52.33-.52.52,0,.13.03.2.13.26-.75.23-1.08.49-1.08.85s.46.49,1.02.49c.92.07,1.7-.46,1.7-.88M11.81,62.93c.33,0,.33.13.29.49h.2l.46-1.24h-.2c-.16.29-.29.49-.65.49h-.75l.36-1.02c.13-.33.2-.39.65-.39h.33c.46,0,.52.13.52.59h.2l.16-.85h-2.82l-.07.16c.56.1.59.16.33.85l-.62,1.67c-.26.69-.36.75-.98.85l-.03.16h3.14l.56-.88h-.23c-.36.33-.82.65-1.44.65-.82,0-.75-.03-.49-.79l.29-.82h.79v.07ZM12.2,60.77l.98-.69v-.1h-.59l-.56.79h.16ZM24.67,56.09c.2,0,.36.13.26.49l-.88.2c.16-.39.39-.69.62-.69M25.16,57.5h-.16c-.23.26-.46.46-.69.46s-.36-.13-.36-.46c0-.13,0-.26.03-.39l1.41-.46c.26-.65-.07-.95-.46-.95-.65,0-1.44,1.11-1.44,2.1,0,.43.2.69.52.69.39,0,.82-.36,1.15-.98M24.87,55.47l.98-.92v-.1h-.52l-.62,1.05h.16v-.03ZM21.96,56.09h.36l-.75,2.03c-.07.16.03.36.2.36.43,0,1.11-.43,1.34-.98h-.13c-.2.2-.56.46-.85.52l.69-1.9h.69l.1-.29h-.69l.26-.72h-.26l-.49.72-.49.07v.2h.03ZM21.56,56.32c.1-.33.03-.62-.2-.62-.29,0-.39.23-.69.88v-.39c0-.26-.1-.52-.33-.52-.29,0-.56.46-.75.88h.13c.13-.2.26-.33.36-.33.13,0,.2.2,0,.62l-.56,1.21c-.1.23,0,.39.23.39.13,0,.2-.03.26-.2l.56-1.44c.16-.2.29-.36.46-.52h.52v.03ZM18.45,56.09c.2,0,.36.13.26.49l-.88.2c.16-.39.43-.69.62-.69M18.94,57.5h-.16c-.23.26-.46.46-.69.46s-.36-.13-.36-.46c0-.13,0-.26.03-.39l1.41-.46c.26-.65-.07-.95-.46-.95-.65,0-1.44,1.11-1.44,2.1,0,.43.2.69.52.69.43,0,.82-.36,1.15-.98M15.47,58.09c-.13,0-.33-.13-.33-.23,0-.03.07-.2.13-.39l.23-.62c.23-.29.62-.59.82-.59.13,0,.23.07.23.26,0,.56-.52,1.57-1.08,1.57M17.08,56.29c0-.43-.16-.56-.43-.56-.36,0-.69.39-1.02.85l.85-2.23-.03-.07-.88.1v.1l.16.13c.16.13.1.26-.03.62l-.92,2.36c-.07.16-.16.39-.16.43,0,.23.33.46.62.46.69,0,1.83-1.24,1.83-2.19M14.29,55.99c.07-.2-.07-.29-.16-.29-.39,0-.88.36-1.08.88h.13c.13-.2.36-.39.56-.43l-.79,2.03c-.07.2.07.29.16.29.39,0,.85-.36,1.05-.88h-.13c-.13.2-.36.39-.56.43l.82-2.03ZM14.46,54.98c.2,0,.33-.16.33-.33,0-.2-.16-.33-.33-.33-.2,0-.33.16-.33.33-.03.2.13.33.33.33M12.4,54.65h-1.87l-.07.16c.56.1.59.16.33.85l-.59,1.67c-.26.69-.36.75-.98.85l-.03.16h2.82l.62-1.08h-.23c-.36.39-.75.85-1.38.85-.46,0-.52-.07-.26-.79l.59-1.67c.26-.69.36-.75.98-.85l.07-.16Z"/>
      <path class="cls-5" d="M12.3,48.33c.33,0,.62-.07.88-.16s.49-.26.69-.43v-1.15h-1.74v-1.24h3.08v2.88c-.33.43-.72.75-1.24,1.02s-1.08.39-1.7.39c-.56,0-1.05-.1-1.51-.29-.46-.2-.85-.46-1.18-.79s-.59-.69-.75-1.15c-.2-.43-.26-.88-.26-1.38s.1-.95.26-1.38c.16-.43.43-.82.72-1.15.33-.33.69-.59,1.15-.79s.92-.29,1.47-.29c.62,0,1.15.13,1.64.39.49.26.88.59,1.21.98l-1.05.85c-.2-.26-.43-.49-.75-.69s-.65-.26-1.02-.26c-.33,0-.62.07-.88.16-.26.13-.49.29-.69.49s-.33.46-.46.72c-.1.29-.16.59-.16.92s.07.62.16.92.26.52.46.72c.2.2.46.36.72.49.33.13.62.2.95.2ZM19.86,42.47c.52,0,1.02.1,1.44.29s.82.46,1.15.79.56.69.72,1.15c.16.43.26.88.26,1.38s-.1.95-.26,1.38c-.16.43-.43.82-.72,1.15-.33.33-.69.59-1.15.79s-.92.29-1.44.29-1.02-.1-1.47-.29-.82-.46-1.15-.79-.56-.69-.72-1.15c-.16-.43-.26-.88-.26-1.38s.1-.95.26-1.38c.16-.43.43-.82.72-1.15.33-.33.69-.59,1.15-.79s.95-.29,1.47-.29ZM19.86,48.33c.33,0,.62-.07.88-.16.26-.13.49-.29.69-.49s.33-.46.46-.72.16-.59.16-.92-.07-.62-.16-.92-.26-.52-.46-.72-.43-.36-.69-.49c-.26-.13-.56-.16-.88-.16s-.62.07-.88.16c-.26.13-.49.29-.69.49s-.33.46-.46.72c-.1.29-.16.59-.16.92s.07.62.16.92.26.52.46.72c.2.2.43.36.69.49.26.1.56.16.88.16ZM28.73,46.89v-4.22h1.38v4.13c0,.88-.26,1.57-.75,2.1-.49.49-1.15.75-2,.75s-1.51-.26-2-.75-.72-1.21-.72-2.1v-4.13h1.38v4.22c0,.46.13.82.36,1.05.23.26.59.39,1.02.39s.75-.13.98-.39c.26-.23.36-.59.36-1.05ZM30.96,42.67h1.47l2,5.27,2-5.27h1.47l-2.55,6.78h-1.8l-2.59-6.78ZM38.92,49.41v-6.74h3.93v1.18h-2.55v1.57h2.19v1.18h-2.19v1.67h2.55v1.18h-3.93v-.03ZM44.45,49.41v-6.74h2.06c.75,0,1.34.2,1.77.56.43.36.65.85.65,1.47,0,.39-.1.75-.29,1.05-.2.29-.46.52-.79.69l2.13,2.98h-1.64l-1.8-2.72h-.72v2.72s-1.38,0-1.38,0ZM46.61,43.81h-.79v1.7h.79c.29,0,.52-.07.69-.23s.23-.36.23-.62-.07-.46-.23-.62c-.2-.13-.39-.23-.69-.23ZM50.83,49.41v-6.74h1.77l3.01,4.85v-4.85h1.38v6.78h-1.77l-3.01-4.85v4.85h-1.38v-.03ZM58.86,49.41v-6.74h3.93v1.18h-2.55v1.57h2.19v1.18h-2.19v1.67h2.55v1.18h-3.93v-.03ZM64.39,49.41v-6.74h1.74l1.64,2.78,1.64-2.78h1.74v6.78h-1.38v-4.85l-1.51,2.49h-.98l-1.51-2.49v4.81h-1.38ZM73,49.41v-6.74h3.93v1.18h-2.55v1.57h2.19v1.18h-2.19v1.67h2.55v1.18h-3.93v-.03ZM78.54,49.41v-6.74h1.77l3.01,4.85v-4.85h1.38v6.78h-1.77l-3.01-4.85v4.85h-1.38v-.03ZM85.9,43.91v-1.24h5.53v1.24h-2.1v5.5h-1.38v-5.5h-2.06Z"/>
      <g id="Marianne">
        <path id="Fond" class="cls-5" d="M19.73,36.94c.1-.1.2-.2.29-.33h0c.2-.2.36-.43.59-.59.07-.07.13-.1.2-.16.03-.03.03-.07.03-.07-.1.03-.13.1-.23.13-.03,0-.03-.03-.03-.03.07-.03.13-.1.2-.13h0s-.03-.03-.03-.03c-.23-.03-.39.13-.56.26-.03.03-.07-.03-.1-.03-.26.1-.46.33-.72.43v-.03c-.1.03-.2.1-.33.13-.16.03-.29.03-.43.03-.2.03-.43.07-.62.1h-.03c-.1.03-.23.07-.33.13h0l-.03.03s-.07.07-.13.1c-.1.07-.2.16-.29.23h-.03c-.1.1-.2.2-.29.26h-.07v-.03s.03-.07.03-.07c.03-.03.03-.07.07-.07.03-.03.03-.07.07-.1v-.03h-.03c.1-.1.2-.16.29-.23h0s-.03,0-.03-.03l.03-.03h0s-.07.03-.1.07c-.03.03-.07.13-.13.1h-.07v-.03h0s0-.03.03-.03v-.03s0-.03.03-.03v-.03s.07-.07.13-.1h0c.07-.03.13-.07.2-.1l.03-.03c-.1.03-.2.07-.29.13h-.07l.1-.1s.03,0,.03.03c.56-.43,1.34-.33,2-.56.07-.03.1-.07.16-.1.1-.03.16-.13.26-.16.13-.1.23-.23.29-.39,0-.03-.03-.03-.03-.03-.23.26-.49.43-.79.59-.36.2-.79.16-1.15.2.03-.03.07-.03.1-.03,0-.07.03-.07.07-.1h.2s.03-.03.03-.03c.03,0,.1-.03.07-.03-.07-.07-.16.07-.26,0,.03-.03.03-.1.07-.1h.07s.03-.07.03-.07c.26-.16.52-.29.75-.43-.07,0-.1.07-.13.03.03,0,0-.07.03-.07.2-.07.36-.16.56-.23-.07,0-.13.07-.2,0,.03-.03.07-.07.1-.07v-.07s.03-.03.03-.03c-.03,0-.03-.03-.03-.03.03-.03.07-.03.1-.07-.03,0-.07,0-.07-.03.07-.07.13-.1.23-.1-.03-.03-.07,0-.07-.03s.03-.03.03-.03h-.03s-.03-.07-.03-.07c.1-.13.1-.29.16-.43t-.03-.03c-.16.2-.46.26-.72.33h-.1c-.1.03-.2.03-.29-.03-.07-.03-.1-.1-.16-.13-.13-.1-.29-.16-.43-.2-.43-.13-.88-.2-1.34-.2.2-.1.39-.1.62-.16.29-.1.59-.2.88-.16-.07-.03-.13,0-.16,0-.26-.03-.49.07-.75.1-.16.03-.33.1-.52.13-.1.03-.16.13-.29.13v-.07c.16-.2.39-.43.65-.43.33-.07.62,0,.92.03.23.03.43.07.65.13.1,0,.1.13.16.16.1.03.2,0,.33.07,0-.03-.03-.07,0-.1.07-.07.16.03.23-.03.13-.1-.13-.23-.2-.36,0-.03.03-.03.03-.03.13.13.23.26.43.36.1.03.29.1.26-.03-.1-.2-.26-.36-.39-.52v-.07s-.03-.03-.07-.03v-.07c-.07-.03-.07-.1-.1-.16-.07-.1-.03-.2-.07-.33.03-.13,0-.23,0-.33-.07-.29-.13-.56-.16-.85-.03-.33.2-.59.36-.88.13-.2.26-.43.49-.56.07-.2.2-.39.33-.56s.36-.26.56-.36c.23-.1.46-.16.46-.16h3.5s.03,0,.1.03c.07.03.2.1.26.13.13.07.26.16.33.29.03.07.1.16.07.23-.03.1-.07.23-.13.26-.1.07-.23.07-.36.03-.07,0-.13-.03-.2-.03.26.1.52.23.69.46.03.03.1.07.16.07.03,0,.03.03.03.07-.03.03-.07.07-.07.1h.07c.1-.03.07-.2.2-.16.1.07.13.16.07.26-.07.07-.13.13-.2.16-.03.03-.03.1,0,.13.07.07.07.13.1.2.07.13.07.26.13.39.07.26.13.52.13.79,0,.13-.07.26-.03.39s.13.26.2.36.13.16.2.29c.1.16.29.36.2.56-.07.13-.26.1-.36.16-.1.1-.03.23.03.33.1.16-.1.26-.23.33.03.07.1.03.13.07.03.1.1.13.07.23-.07.1-.29.16-.16.33.07.13.03.26-.03.39-.07.16-.2.23-.33.26-.1.03-.23.03-.33.03-.03-.03-.07-.03-.1-.03-.29-.03-.59-.13-.88-.13-.1.03-.16.03-.23.07-.07.07-.16.13-.2.2h0l-.03.03s0,.03-.03.03v.03c-.07.07-.1.13-.13.2h0v.03c-.07.1-.1.23-.13.33-.13.39-.07.75.03.82.03.03.59.2.95.36.2.07.29.13.43.2h-7.2c.33-.23.65-.36,1.15-.59,0-.1.49-.33.65-.49M17.04,35.66s-.1.03-.1-.03c.03-.1.13-.1.2-.13.03-.03.1-.07.13-.03.03.07.1.03.13.07-.1.13-.23.1-.36.13M14.36,35.27l-.03-.03c.23-.29.39-.59.56-.88.23-.13.43-.29.59-.49.29-.33.62-.59.98-.79.13-.07.33-.03.46.03-.07.07-.13.07-.2.1t-.07-.03s.03-.03.03-.07c-.16.2-.43.29-.56.52-.1.16-.16.39-.39.46-.07.03.03-.07-.03-.03-.56.36-.92.75-1.34,1.21M15.8,34.12l-.07.07s-.03.07-.07.07-.03,0-.03-.03c.03-.07.07-.13.13-.16.03.03.03.07.03.07M16.62,36.74s-.03.03-.03.07t.03.03s-.07.07-.13.1h-.03l-.07.07s-.13,0-.1-.03l.13-.13s.07-.03.07-.07l.03-.03s.13-.03.1,0M16.32,36.61s-.03,0,0,0c-.07.07-.13.1-.2.13-.07.03-.16.07-.23.1h-.03c-.07.03-.13.1-.16.13l-.03.03h0l-.03.03h0l-.03.03s0,.03-.03.03h-.1l-.07.07-.1.1h0v.03h0v-.03h0l.07-.07h0l.03-.03.03-.03h0s.03-.07.07-.07h0l.03-.03s0-.03.03-.03h0s0-.03.03-.03h0v-.03h0v-.03h0s.03-.07.07-.1h0s-.03.03-.07.07c-.03,0-.07,0-.03-.03l.03-.03h0l.1-.1s.03-.03.07-.03h0l.03-.03h0c.16-.16.46-.16.69-.26.1-.03.2.03.29,0,.07,0,.1,0,.16.03-.36,0-.49.1-.62.2M16.68,35.4s.07,0,.07-.03h-.16s-.03-.03-.03-.03c-.1.03-.2.07-.29.07-.13.03-.23.13-.36.16-.2.07-.36.23-.56.29-.03,0-.03-.03-.03-.03.03-.07.1-.07.13-.13t-.03-.03c.13-.2.33-.29.52-.46v-.07c.07-.07.13-.1.16-.2.03-.07.1-.13.16-.16-.03-.03-.07-.03-.07-.07-.07,0-.13.03-.2-.03.03-.03.07-.07.1-.07,0,0-.03,0-.03-.03-.03-.03.03-.07.1-.1s.16-.03.2-.07c-.13-.03-.26.03-.39-.03.1-.23.23-.43.43-.52.03,0,.07,0,.07.03,0,.1-.07.16-.13.16.13.03.29.03.43.1-.03.03-.07.03-.07.03.1.07.2.03.29.1-.07.07-.1,0-.16,0,.56.16,1.11.29,1.57.62-.39.2-.79.29-1.21.36-.07,0-.1,0-.13-.03,0,.03,0,.07-.03.07-.07,0-.13,0-.16.03-.03.1-.13.1-.16.07"/>
        <path id="Rouge" class="cls-4" d="M19.73,36.94c.1-.1.2-.2.29-.33h0c.2-.2.36-.43.59-.59.07-.07.13-.1.2-.16.03-.03.03-.07.03-.07-.1.03-.13.1-.23.13-.03,0-.03-.03-.03-.03.07-.03.13-.1.2-.13h0s-.03-.03-.03-.03c-.23-.03-.39.13-.56.26-.03.03-.07-.03-.1-.03-.26.1-.46.33-.72.43v-.03c-.1.03-.2.1-.33.13-.16.03-.29.03-.43.03-.2.03-.43.07-.62.1h-.03c-.1.03-.23.07-.33.13h0l-.03.03s-.07.07-.13.1c-.1.07-.2.16-.29.23h-.03c-.1.1-.2.2-.29.26h-.07v-.03s.03-.07.03-.07c.03-.03.03-.07.07-.07.03-.03.03-.07.07-.1v-.03h-.03c.1-.1.2-.16.29-.23h0s-.03,0-.03-.03l.03-.03h0s-.07.03-.1.07c-.03.03-.07.13-.13.1h-.07v-.03h0s0-.03.03-.03v-.03s0-.03.03-.03v-.03s.07-.07.13-.1h0c.07-.03.13-.07.2-.1l.03-.03c-.1.03-.2.07-.29.13h-.07l.1-.1s.03,0,.03.03c.56-.43,1.34-.33,2-.56.07-.03.1-.07.16-.1.1-.03.16-.13.26-.16.13-.1.23-.23.29-.39,0-.03-.03-.03-.03-.03-.23.26-.49.43-.79.59-.36.2-.79.16-1.15.2.03-.03.07-.03.1-.03,0-.07.03-.07.07-.1h.2s.03-.03.03-.03c.03,0,.1-.03.07-.03-.07-.07-.16.07-.26,0,.03-.03.03-.1.07-.1h.07s.03-.07.03-.07c.26-.16.52-.29.75-.43-.07,0-.1.07-.13.03.03,0,0-.07.03-.07.2-.07.36-.16.56-.23-.07,0-.13.07-.2,0,.03-.03.07-.07.1-.07v-.07s.03-.03.03-.03c-.03,0-.03-.03-.03-.03.03-.03.07-.03.1-.07-.03,0-.07,0-.07-.03.07-.07.13-.1.23-.1-.03-.03-.07,0-.07-.03s.03-.03.03-.03h-.03s-.03-.07-.03-.07c.1-.13.1-.29.16-.43t-.03-.03c-.16.2-.46.26-.72.33h-.1c-.1.03-.2.03-.29-.03-.07-.03-.1-.1-.16-.13-.13-.1-.29-.16-.43-.2-.43-.13-.88-.2-1.34-.2.2-.1.39-.1.62-.16.29-.1.59-.2.88-.16-.07-.03-.13,0-.16,0-.26-.03-.49.07-.75.1-.16.03-.33.1-.52.13-.1.03-.16.13-.29.13v-.07c.16-.2.39-.43.65-.43.33-.07.62,0,.92.03.23.03.43.07.65.13.1,0,.1.13.16.16.1.03.2,0,.33.07,0-.03-.03-.07,0-.1.07-.07.16.03.23-.03.13-.1-.13-.23-.2-.36,0-.03.03-.03.03-.03.13.13.23.26.43.36.1.03.29.1.26-.03-.1-.2-.26-.36-.39-.52v-.07s-.03-.03-.07-.03v-.07c-.07-.03-.07-.1-.1-.16-.07-.1-.03-.2-.07-.33.03-.13,0-.23,0-.33-.07-.29-.13-.56-.16-.85-.03-.33.2-.59.36-.88.13-.2.26-.43.49-.56.07-.2.2-.39.33-.56s.36-.26.56-.36c.23-.1.46-.16.46-.16h-12.05v9.27h8.51c.33-.23.65-.36,1.15-.59.23-.1.72-.33.88-.49M17.04,35.66s-.1.03-.1-.03c.03-.1.13-.1.2-.13.03-.03.1-.07.13-.03.03.07.1.03.13.07-.1.13-.23.1-.36.13M14.36,35.27l-.03-.03c.23-.29.39-.59.56-.88.23-.13.43-.29.59-.49.29-.33.62-.59.98-.79.13-.07.33-.03.46.03-.07.07-.13.07-.2.1t-.07-.03s.03-.03.03-.07c-.16.2-.43.29-.56.52-.1.16-.16.39-.39.46-.07.03.03-.07-.03-.03-.52.36-.92.75-1.34,1.21M15.8,34.12l-.07.07s-.03.07-.07.07-.03,0-.03-.03c.03-.07.07-.13.13-.16.03.03.03.07.03.07M16.62,36.74s-.03.03-.03.07t.03.03s-.07.07-.13.1h-.03l-.07.07s-.13,0-.1-.03l.13-.13s.07-.03.07-.07l.03-.03s.13-.03.1,0M16.32,36.61h0c-.07.07-.13.1-.2.13-.07.03-.16.07-.23.1h-.03c-.07.03-.13.1-.16.13l-.03.03h0l-.03.03h0l-.03.03s0,.03-.03.03h-.1l-.07.07-.1.1h0v.03h0v-.03h0l.07-.07h0l.03-.03.03-.03h0s.03-.07.07-.07h0l.03-.03s0-.03.03-.03h0s0-.03.03-.03h0v-.03h0v-.03h0s.03-.07.07-.1h0s-.03.03-.07.07c-.03,0-.07,0-.03-.03l.03-.03h0l.1-.1s.03-.03.07-.03h0l.03-.03h0c.16-.16.46-.16.69-.26.1-.03.2.03.29,0,.07,0,.1,0,.16.03-.36,0-.49.1-.62.2M16.68,35.4s.07,0,.07-.03h-.16s-.03-.03-.03-.03c-.1.03-.2.07-.29.07-.13.03-.23.13-.36.16-.2.07-.36.23-.56.29-.03,0-.03-.03-.03-.03.03-.07.1-.07.13-.13t-.03-.03c.13-.2.33-.29.52-.46v-.07c.07-.07.13-.1.16-.2.03-.07.1-.13.16-.16-.03-.03-.07-.03-.07-.07-.07,0-.13.03-.2-.03.03-.03.07-.07.1-.07,0,0-.03,0-.03-.03-.03-.03.03-.07.1-.1s.16-.03.2-.07c-.13-.03-.26.03-.39-.03.1-.23.23-.43.43-.52.03,0,.07,0,.07.03,0,.1-.07.16-.13.16.13.03.29.03.43.1-.03.03-.07.03-.07.03.1.07.2.03.29.1-.07.07-.1,0-.16,0,.56.16,1.11.29,1.57.62-.39.2-.79.29-1.21.36-.07,0-.1,0-.13-.03,0,.03,0,.07-.03.07-.07,0-.13,0-.16.03-.03.1-.13.1-.16.07"/>
        <path id="Bleu" class="cls-2" d="M34.69,28.75h-9.95s.03,0,.1.03c.07.03.2.1.26.13.13.07.26.16.33.29.03.07.1.16.07.23-.03.1-.07.23-.13.26-.1.07-.23.07-.36.03-.07,0-.13-.03-.2-.03.26.1.52.23.69.46.03.03.1.07.16.07.03,0,.03.03.03.07-.03.03-.07.07-.07.1h.07c.1-.03.07-.2.2-.16.1.07.13.16.07.26-.07.07-.13.13-.2.16-.03.03-.03.1,0,.13.07.07.07.13.1.2.07.13.07.26.13.39.07.26.13.52.13.79,0,.13-.07.26-.03.39s.13.26.2.36.13.16.2.29c.1.16.29.36.2.56-.07.13-.26.1-.36.16-.1.1-.03.23.03.33.1.16-.1.26-.23.33.03.07.1.03.13.07.03.1.1.13.07.23-.07.1-.29.16-.16.33.07.13.03.26-.03.39-.07.16-.2.23-.33.26-.1.03-.23.03-.33.03-.03-.03-.07-.03-.1-.03-.29-.03-.59-.13-.88-.13-.1.03-.16.03-.23.07-.07.07-.16.13-.2.2h0l-.03.03s0,.03-.03.03v.03c-.07.07-.1.13-.13.2h0v.03c-.07.1-.1.23-.13.33-.13.39-.07.75.03.82.03.03.59.2.95.36.2.07.29.13.43.2h9.79v-9.27h-.23Z"/>
        <path id="Yeux" class="cls-1" d="M25.33,32.12c.07.03.16.03.16.07-.03.13-.23.16-.36.33h-.03c-.07.03-.03.13-.1.13-.07-.03-.1,0-.16.03.07.07.16.13.26.1.03,0,.07.03.07.07,0,0,.03,0,.03-.03t.03.03v.03c-.07.07-.13.03-.2.07.13.03.29.03.39,0,.1-.03,0-.2.07-.29-.03,0,0-.07-.03-.07.03-.03.07-.1.1-.1s.1-.03.1-.07-.07-.07-.07-.1c.1-.07.2-.16.16-.29-.03-.07-.16-.07-.26-.1s-.2,0-.29.03c-.1,0-.16.07-.26.07-.13.03-.23.1-.33.16.13-.07.26-.07.39-.1.13.03.2,0,.33.03"/>
      </g>
    </g>
    <rect class="cls-3" width="100" height="100"/>
  </g>
</svg>