<?xml version="1.0" encoding="UTF-8"?>
<svg id="Calque_2" data-name="Calque 2" xmlns="http://www.w3.org/2000/svg" viewBox="0 0 100 100">
  <defs>
    <style>
      .cls-1 {
        fill: none;
      }

      .cls-1, .cls-2 {
        stroke-width: 0px;
      }

      .cls-2 {
        fill: #fff;
      }
    </style>
  </defs>
  <g id="_ëîé_1" data-name="‘ëîé_1">
    <rect class="cls-1" width="100" height="100"/>
    <g>
      <rect class="cls-2" x="22.46" y="47.05" width="4.72" height=".14" transform="translate(-1.91 1.06) rotate(-2.35)"/>
      <polygon class="cls-2" points="20.76 51.08 20.67 50.96 26.76 46.66 18.94 43.49 18.99 43.36 27.05 46.62 20.76 51.08"/>
      <polygon class="cls-2" points="27.18 47.02 22.2 42 22.31 41.9 26.62 46.26 21.72 36.9 21.85 36.83 27.18 47.02"/>
      <polygon class="cls-2" points="26.8 46.98 27.92 36.3 28.06 36.32 27.01 46.3 29.45 41.91 29.57 41.98 26.8 46.98"/>
      <rect class="cls-2" x="26.85" y="45.27" width="7.07" height=".14" transform="translate(-12.45 11.51) rotate(-17.87)"/>
      <polygon class="cls-2" points="26.74 46.55 25.22 38.84 25.36 38.81 26.84 46.31 34.78 40.52 34.87 40.63 26.74 46.55"/>
      <g>
        <g>
          <path class="cls-2" d="M16.47,45.52v15.01h6v4.24h-11v-19.24h5Z"/>
          <path class="cls-2" d="M24.3,46.64c0-.36.07-.69.2-1.01.14-.31.32-.59.56-.83.24-.24.51-.43.83-.56.31-.14.65-.2,1.01-.2s.69.07,1.01.2c.31.14.59.32.83.56.24.24.43.51.56.83.14.31.2.65.2,1.01s-.07.69-.2,1.01c-.14.32-.32.59-.56.83-.24.24-.51.43-.83.56-.32.14-.65.2-1.01.2s-.69-.07-1.01-.2c-.32-.14-.59-.32-.83-.56-.24-.24-.43-.51-.56-.83-.14-.31-.2-.65-.2-1.01ZM29.23,51.67v13.09h-4.62v-13.09h4.62Z"/>
          <path class="cls-2" d="M32.82,45.52h7.4c1.31,0,2.54.26,3.69.79,1.15.53,2.15,1.23,3.01,2.11.86.88,1.54,1.9,2.03,3.06.49,1.17.74,2.39.74,3.66s-.24,2.47-.73,3.64c-.48,1.17-1.16,2.19-2.02,3.08-.86.88-1.86,1.59-3.01,2.12-1.15.53-2.39.79-3.71.79h-7.4v-19.24ZM37.83,60.52h1.15c.87,0,1.64-.14,2.32-.41.68-.27,1.25-.65,1.72-1.12.47-.48.83-1.04,1.07-1.7.25-.65.37-1.37.37-2.16s-.13-1.48-.38-2.14c-.26-.66-.62-1.23-1.08-1.71-.47-.48-1.04-.85-1.72-1.12-.68-.27-1.45-.41-2.3-.41h-1.15v10.77Z"/>
          <path class="cls-2" d="M63.86,61.42h-7.15l-1.15,3.34h-5.33l7.32-19.24h5.46l7.32,19.24h-5.33l-1.15-3.34ZM62.53,57.61l-2.25-6.41-2.25,6.41h4.49Z"/>
          <path class="cls-2" d="M88.54,64.76h-6.23l-4.77-7.4v7.4h-5v-19.24h7.78c1.07,0,2.01.16,2.81.47.8.31,1.46.74,1.98,1.29.52.54.91,1.17,1.17,1.89.26.71.4,1.48.4,2.3,0,1.46-.35,2.65-1.06,3.56-.71.91-1.75,1.53-3.13,1.85l6.05,7.89ZM77.54,54.12h.94c.99,0,1.74-.2,2.27-.61.53-.41.79-1,.79-1.76s-.26-1.35-.79-1.76c-.53-.41-1.28-.61-2.27-.61h-.94v4.75Z"/>
        </g>
        <circle class="cls-2" cx="18.97" cy="43.42" r="1.07"/>
        <circle class="cls-2" cx="34.82" cy="40.57" r="1.07"/>
        <circle class="cls-2" cx="27.99" cy="36.31" r="1.07"/>
        <circle class="cls-2" cx="20.71" cy="51.02" r="1.07"/>
        <circle class="cls-2" cx="21.78" cy="36.86" r="1.07"/>
        <circle class="cls-2" cx="29.51" cy="41.95" r=".68"/>
        <circle class="cls-2" cx="22.25" cy="41.95" r=".68"/>
        <circle class="cls-2" cx="22.46" cy="47.22" r=".68"/>
        <circle class="cls-2" cx="33.76" cy="44.26" r=".68"/>
      </g>
      <circle class="cls-2" cx="25.29" cy="38.82" r=".68"/>
    </g>
  </g>
</svg>