<?xml version="1.0" encoding="iso-8859-1"?>
<!-- Generator: Adobe Illustrator 24.1.2, SVG Export Plug-In . SVG Version: 6.00 Build 0)  -->
<svg version="1.1" id="Layer_1" xmlns="http://www.w3.org/2000/svg" xmlns:xlink="http://www.w3.org/1999/xlink" x="0px" y="0px"
	 viewBox="0 0 48 48" style="enable-background:new 0 0 48 48;" xml:space="preserve">
<g id="&#x421;&#x43B;&#x43E;&#x439;_1_1_">
</g>
<radialGradient id="SVGID_1_" cx="23.6046" cy="30.8529" r="20" gradientUnits="userSpaceOnUse">
	<stop  offset="0" style="stop-color:#33BEF0"/>
	<stop  offset="0.1397" style="stop-color:#31B7F1"/>
	<stop  offset="0.3478" style="stop-color:#2DA2F2"/>
	<stop  offset="0.5986" style="stop-color:#2681F5"/>
	<stop  offset="0.8804" style="stop-color:#1D54F9"/>
	<stop  offset="1" style="stop-color:#183EFB"/>
</radialGradient>
<circle style="fill:url(#SVGID_1_);" cx="24" cy="24" r="20"/>
<radialGradient id="SVGID_2_" cx="23.9626" cy="20.1765" r="22.4573" fx="23.8742" fy="38.5852" gradientUnits="userSpaceOnUse">
	<stop  offset="0.1927" style="stop-color:#33BEF0"/>
	<stop  offset="0.5451" style="stop-color:#226CF7"/>
	<stop  offset="0.5925" style="stop-color:#3075F8"/>
	<stop  offset="0.6825" style="stop-color:#568EF9"/>
	<stop  offset="0.8057" style="stop-color:#93B7FB"/>
	<stop  offset="0.956" style="stop-color:#E5EEFE"/>
	<stop  offset="1" style="stop-color:#FFFFFF"/>
</radialGradient>
<ellipse style="fill:url(#SVGID_2_);" cx="24.081" cy="13.5" rx="11.581" ry="8.5"/>
<path style="opacity:0.05;" d="M28.955,33l-5.21-8.053c-0.446,0.027-0.87,0.041-1.245,0.047V29H25v4h-9v-4h2.5V17.07l-2.5-0.5
	v-3.852l1.242,0.311c0.019,0.005,1.901,0.471,3.008,0.471c0.512,0,1.119-0.106,1.762-0.218C22.811,13.143,23.631,13,24.5,13
	c4.313,0,6.5,2.019,6.5,6c0,2.393-1.115,4.143-3.236,5.094L31.035,29H34v4H28.955z M22.5,21.091
	c0.205,0.013,0.437,0.021,0.686,0.021C25.717,21.111,27,20.401,27,19c0-1.5-0.424-2.169-2.937-2.169
	c-0.454,0-0.969,0.024-1.563,0.075V21.091z"/>
<path style="opacity:0.07;" d="M29.228,32.5l-5.223-8.072c-0.724,0.056-1.418,0.068-2.005,0.071V29.5h2.5v3h-8v-3H19V16.66l-2.5-0.5
	v-2.801l0.621,0.155C17.141,13.52,19.077,14,20.25,14c0.554,0,1.182-0.109,1.848-0.226C22.872,13.64,23.673,13.5,24.5,13.5
	c1.484,0,6,0,6,5.5c0,2.411-1.175,4.043-3.494,4.858l3.762,5.642H33.5v3H29.228z M22,21.555c0.29,0.027,0.708,0.057,1.186,0.057
	c1.968,0,4.314-0.453,4.314-2.611c0-1.971-0.899-2.669-3.437-2.669c-0.58,0-1.258,0.039-2.063,0.119V21.555z"/>
<path style="fill:#FFFFFF;" d="M30.5,30l-4.282-6.423C28.268,23.036,30,21.806,30,19c0-5-4-5-5.5-5s-3,0.5-4.25,0.5S17,14,17,14
	v1.75l2.5,0.5V30H17v2h7v-2h-2.5v-6c0.794,0,1.765-0.003,2.762-0.096L29.5,32H33v-2H30.5z M21.5,22v-6c4.5-0.5,6.5,0,6.5,3
	C28,23,21.5,22,21.5,22z"/>
</svg>